<svg width="201" height="201" viewBox="0 0 201 201" fill="none" xmlns="http://www.w3.org/2000/svg">
<path d="M135.533 5.99999C171.254 41.7205 171.254 99.6349 135.533 135.355C99.8126 171.076 41.8982 171.076 6.17773 135.355L135.533 5.99999Z" fill="#FFE600"/>
<path d="M135.533 5.99999C171.254 41.7205 171.254 99.6349 135.533 135.355C99.8126 171.076 41.8982 171.076 6.17773 135.355L135.533 5.99999Z" fill="#FFE600"/>
<path d="M135.533 5.99999C171.254 41.7205 171.254 99.6349 135.533 135.355C99.8126 171.076 41.8982 171.076 6.17773 135.355L135.533 5.99999Z" stroke="black" stroke-width="8"/>
<path d="M118 23.533C145.307 50.8398 145.307 95.113 118 122.42C90.6932 149.727 46.4201 149.727 19.1133 122.42L68.5567 72.9764L118 23.533Z" fill="#FCFF78"/>
<path d="M118 23.533C145.307 50.8398 145.307 95.113 118 122.42C90.6932 149.727 46.4201 149.727 19.1133 122.42L68.5567 72.9764L118 23.533Z" fill="#FCFF78"/>
<path d="M118 122.42C145.307 95.113 145.307 50.8398 118 23.533L68.5567 72.9764M118 122.42C90.6932 149.727 46.4201 149.727 19.1133 122.42L68.5567 72.9764M118 122.42L68.5567 72.9764M68.5567 72.9764L64.8027 142.8M68.5567 72.9764L138.38 69.2224" stroke="black" stroke-width="8"/>
</svg>
