<svg width="260" height="265" viewBox="0 0 260 265" fill="none" xmlns="http://www.w3.org/2000/svg">
<path d="M154.355 6.28918C190.076 42.0097 190.076 99.924 154.355 135.645C118.635 171.365 60.7205 171.365 25 135.645L154.355 6.28918Z" fill="#FFE600"/>
<path d="M154.355 6.28918C190.076 42.0097 190.076 99.924 154.355 135.645C118.635 171.365 60.7205 171.365 25 135.645L154.355 6.28918Z" fill="#FFE600"/>
<path d="M154.355 6.28918C190.076 42.0097 190.076 99.924 154.355 135.645C118.635 171.365 60.7205 171.365 25 135.645L154.355 6.28918Z" stroke="black" stroke-width="8"/>
<path d="M136.822 23.8222C164.129 51.129 164.129 95.4021 136.822 122.709C109.515 150.016 65.2424 150.016 37.9355 122.709L87.3789 73.2656L136.822 23.8222Z" fill="#FCFF78"/>
<path d="M136.822 23.8222C164.129 51.129 164.129 95.4021 136.822 122.709C109.515 150.016 65.2424 150.016 37.9355 122.709L87.3789 73.2656L136.822 23.8222Z" fill="#FCFF78"/>
<path d="M136.822 122.709C164.129 95.4021 164.129 51.129 136.822 23.8222L87.3789 73.2656M136.822 122.709C109.515 150.016 65.2424 150.016 37.9355 122.709L87.3789 73.2656M136.822 122.709L87.3789 73.2656M87.3789 73.2656L83.6249 143.089M87.3789 73.2656L157.202 69.5116" stroke="black" stroke-width="8"/>
<ellipse cx="105.5" cy="181" rx="70.5" ry="13" fill="black" fill-opacity="0.5"/>
</svg>
